<svg class="svg-icon" style="width: 1em; height: 1em;vertical-align: middle;fill: currentColor;overflow: hidden;" viewBox="0 0 1024 1024" version="1.1" xmlns="http://www.w3.org/2000/svg"><path d="M844.899753 169.740634L571.855956 51.680722s-1.779999-0.668-2.403999-0.936a243.11982 243.11982 0 0 0-9.887992-3.919997c-0.891999-0.312-1.823999-0.624-2.715998-0.935999l-2.003999-0.668c-2.227998-0.755999-4.451997-1.511999-6.679995-2.183998l-2.851998-0.843999a229.07583 229.07583 0 0 0-64.263952-9.219993 227.159831 227.159831 0 0 0-39.591971 3.519997 229.27983 229.27983 0 0 0-60.119955 19.463985L58.592337 212.940602a31.107977 31.107977 0 0 0-14.78399 40.92797 31.239977 31.239977 0 0 0 28.503979 18.435986c4.139997 0 8.239994-0.847999 12.111991-2.447998L347.760122 158.784642l37.143972-15.675988-33.491975 57.583957c-25.607981 44.087967-20.843985 99.979926 11.711991 138.903897l26.499981 30.951977a137.287898 137.287898 0 0 1 52.99596-59.099956c-16.787988-34.067975-15.363989-75.175944 5.211997-108.30792 18.303986-29.527978 49.923963-47.115965 84.615937-47.115965h20.083985c33.979975 0 64.843952 18.747986 80.56394 48.987964 19.459986 37.543972 9.975993 84.435937-22.491983 111.471917l-9.175993 7.659994-18.035987 15.051989-28.235979 23.559983c-10.911992 9.039993-13.75999 24.627982-6.767995 37.051972a29.611978 29.611978 0 0 0 25.739981 15.051989 28.979978 28.979978 0 0 0 13.93999-3.563997l33.043975-17.811987 20.575985-11.131992 36.207973-19.551985a224.915833 224.915833 0 0 1 106.347921-26.85598h227.751831V169.740634h-167.095876z" fill="#E0E0E0" /><path d="M850.863748 136.840658L583.267947 21.148744a256.931809 256.931809 0 0 0-214.603841 4.803997l-322.71976 157.015883A59.895956 59.895956 0 0 0 17.400367 261.812566c10.075993 22.363983 31.707976 35.559974 54.62796 35.559973 7.863994 0 15.883988-1.555999 23.635982-4.823996l241.363821-101.795925-5.191996-12.31199-241.359821 101.795924c-23.603982 9.963993-50.363963-0.54-60.891955-23.911982a46.599965 46.599965 0 0 1 22.207984-61.347955l322.71976-157.011883a243.595819 243.595819 0 0 1 203.455849-4.551997l270.1278 116.787914h163.899878v-13.359991h-161.131881z" fill="#4A555F" /><path d="M850.871748 136.828658L583.279947 21.140744a254.395811 254.395811 0 0 0-29.823978-10.751992l-5.739996-1.659998c-37.383972-6.491995-76.547943 2.263998-109.671918 22.023983a162.679879 162.679879 0 0 0-57.223958 57.871957L326.396138 182.192625c-31.711976 54.55996-25.815981 123.763908 14.731989 172.255872l35.627973 41.639969 10.151993-8.683994-35.579974-41.579969c-36.899973-44.139967-42.275969-107.19592-13.37999-156.911883l54.42396-93.571931a149.251889 149.251889 0 0 1 52.511961-53.11196c31.851976-18.999986 74.775945-24.783982 110.563918-17.267988a241.171821 241.171821 0 0 1 22.535983 8.447994l270.1238 116.783914H1011.999629v-13.359991h-161.127881z" fill="#4A555F" /><path d="M784.243798 347.568502a209.427845 209.427845 0 0 0-98.967927 24.983981l-89.787933 48.499965c-21.487984 11.627991-48.707964 3.743997-60.699955-17.579987a44.971967 44.971967 0 0 1 10.443992-56.703958l55.391959-46.219966c26.90398-22.395983 34.735974-61.227955 18.623986-92.339932a74.959944 74.959944 0 0 0-66.71595-40.563969h-20.083985c-29.275978 0-55.955958 14.847989-71.363947 39.71597a95.863929 95.863929 0 0 0-14.455989 50.643963c0 16.047988 4.055997 31.971976 11.727991 46.039965l11.727991-6.395995a83.071938 83.071938 0 0 1-10.095992-39.64397c0-15.419989 4.303997-30.495977 12.44799-43.599968 12.95999-20.915984 35.391974-33.399975 60.011956-33.399975h20.083985a61.635954 61.635954 0 0 1 54.855959 33.355975c13.24799 25.575981 6.807995 57.503957-15.315988 75.927944L536.679982 336.50451a58.315957 58.315957 0 0 0-13.53599 73.523946c10.671992 18.975986 30.663977 29.739978 51.163962 29.739978 9.351993 0 18.803986-2.239998 27.527979-6.959995l89.779934-48.495964a196.027855 196.027855 0 0 1 92.627931-23.383983h227.751831v-13.35999h-227.751831z" fill="#4A555F" /><path d="M643.667902 395.004467l-48.179964 26.047981c-21.487984 11.627991-48.707964 3.743997-60.699955-17.579987a44.971967 44.971967 0 0 1 10.443992-56.703958l38.915971-32.459976-8.555993-10.263993-38.911971 32.459976a58.315957 58.315957 0 0 0-13.53599 73.523946c10.671992 18.975986 30.663977 29.739978 51.163962 29.739978 9.351993 0 18.803986-2.239998 27.527979-6.959995l48.199965-26.063981-6.367996-11.739991zM67.20833 637.740287V1024h13.35999v-372.899723h865.343358V1024h13.35999v-386.259713z" fill="#4A555F" /><path d="M96.156309 666.688265h834.167381V1024H96.156309z" fill="#71CDE1" /><path d="M317.696144 717.196228h391.08371v71.795946H317.696144z" fill="#F68F6F" /><path d="M311.020149 710.516233v85.155936h404.4437v-85.155936H311.020149z m391.07971 71.795946h-377.71972v-58.435956h377.71972v58.435956z" fill="#4A555F" /><path d="M625.431916 412.500454l-26.76398 14.427989c-24.851982 13.44799-55.847959 4.451997-69.695949-20.171985-12.247991-21.731984-7.215995-49.167964 11.979992-65.111952l19.683985-16.431987a112.251917 112.251917 0 0 0-47.383965-10.375993c-62.571954 0-113.295916 50.727962-113.295916 113.251916 0 62.571954 50.723962 113.295916 113.295916 113.295916 62.571954 0 113.251916-50.727962 113.251916-113.295916a112.887916 112.887916 0 0 0-1.071999-15.587988z" fill="#FFD552" /><path d="M506.764004 484.4364h13.35999v26.471981h-13.35999z" fill="#4A555F" /><path d="M653.399895 399.552463l-1.787999-8.859993-56.123958 30.355978a45.071967 45.071967 0 0 1-21.375984 5.435995 45.183966 45.183966 0 0 1-39.323971-23.011982 44.971967 44.971967 0 0 1 10.443992-56.703958l46.355966-38.659972-8.435994-4.751996a142.703894 142.703894 0 0 0-69.903948-18.271987c-10.495992 0-20.999984 1.151999-31.223977 3.419998-63.723953 14.13199-111.775917 74.139945-111.775917 139.583896 0 78.851941 64.147952 142.999894 142.999894 142.999894s142.999894-64.147952 142.999894-142.999894c0-9.575993-0.955999-19.175986-2.847998-28.535979z m-140.151896 158.175883c-71.483947 0-129.639904-58.155957-129.639904-129.639904 0-59.327956 43.551968-113.727916 101.307925-126.539906a131.147903 131.147903 0 0 1 28.331979-3.099998c18.911986 0 37.599972 4.147997 54.59596 12.059992l-31.163977 25.99998a58.315957 58.315957 0 0 0-13.53599 73.523946 58.547957 58.547957 0 0 0 50.963962 29.819978c9.627993 0 19.215986-2.435998 27.723979-7.039995l39.959971-21.587984c0.723999 5.587996 1.087999 11.231992 1.087999 16.867987 0.008 71.475947-58.147957 129.635904-129.631904 129.635904z" fill="#4A555F" /><path d="M487.364018 602.928313c4.507997 0.592 9.139993 1.035999 13.77199 1.311999l0.791999-13.339991a177.923868 177.923868 0 0 1-12.81199-1.219999l-1.751999 13.247991z m-53.05596-15.723989c4.139997 2.011999 8.435994 3.879997 12.76799 5.547996l4.803997-12.463991a152.395887 152.395887 0 0 1-11.727992-5.099996l-5.843995 12.015991z m-34.435975-41.859969l-10.531992 8.223994c0.14 0.18 3.511997 4.479997 10.151993 10.443992l8.927993-9.935992c-5.667996-5.095996-8.519994-8.695994-8.547994-8.731994z m10.527992 27.50398a154.163886 154.163886 0 0 0 11.647992 7.719994l6.871995-11.459991a140.599896 140.599896 0 0 1-10.631992-7.043995l-7.887995 10.783992z m49.843963 24.363982a176.959869 176.959869 0 0 0 13.45999 3.383997l2.751998-13.07199a164.439878 164.439878 0 0 1-12.44399-3.127998l-3.767998 12.815991z m54.58796-5.987996l0.108 13.35999a202.08785 202.08785 0 0 0 13.79599-0.579999l-1.016-13.31999a188.65186 188.65186 0 0 1-12.88799 0.539999z m74.647944-16.967987l5.827996 12.019991a173.439871 173.439871 0 0 0 12.251991-6.559995l-6.775995-11.515992a160.051881 160.051881 0 0 1-11.303992 6.055996z m32.143977-20.819985a139.939896 139.939896 0 0 1-10.079993 7.815994l7.711994 10.911992c3.883997-2.743998 7.599994-5.627996 11.047992-8.567993l-8.679993-10.159993z m-56.035959 30.183978l3.899997 12.77599a180.895866 180.895866 0 0 0 13.103991-4.555996l-4.879997-12.439991c-3.943997 1.547999-8.023994 2.963998-12.123991 4.219997z m-25.075981 5.631996l1.959998 13.21599a191.887858 191.887858 0 0 0 13.60799-2.527998l-2.919998-13.039991c-4.143997 0.931999-8.399994 1.719999-12.64799 2.351999z" fill="#4A555F" /><path d="M515.787997 421.628447h-2.491998a22.415983 22.415983 0 0 1-22.399983-22.399983 22.559983 22.559983 0 0 1 22.535983-22.531984h2.403998c0.356-4.543997 1.247999-9.039993 2.627998-13.35999h-5.031996c-19.819985 0-35.895973 16.119988-35.895973 35.895974 0 19.727985 16.031988 35.759973 35.759973 35.759973h2.491998a20.263985 20.263985 0 0 1 20.219985 20.219985 22.559983 22.559983 0 0 1-45.115966 0h-13.35999c0 19.815985 16.119988 35.895973 35.895973 35.895974 19.819985 0 35.939973-16.075988 35.939973-35.895974 0-18.531986-15.051989-33.583975-33.579975-33.583975z" fill="#4A555F" /></svg>